<svg width="59" height="59" viewBox="0 0 59 59" fill="none"
     xmlns="http://www.w3.org/2000/svg">
  <path fill-rule="evenodd" clip-rule="evenodd"
        d="M36.8905 13.475C36.1545 13.3345 35.6717 12.6239 35.8122 11.8879C35.9527 11.1519 36.6632 10.6691 37.3993 10.8096L41.4931 11.5909L42.9998 7.70512C43.2707 7.00648 44.0567 6.65973 44.7553 6.93064C45.454 7.20154 45.8007 7.98752 45.5298 8.68616L44.9143 10.2735C49.9378 8.74312 54.6442 10.1289 57.1184 14.5924C60.245 20.2328 57.9695 27.437 52.0849 30.6989C46.2003 33.9608 38.885 32.0729 35.7585 26.4325C33.2843 21.9689 34.6031 17.2434 38.5629 13.7942L36.8905 13.475ZM39.5571 16.5836C37.1343 19.118 36.5188 22.2069 38.1318 25.1169C40.5156 29.4174 46.168 30.8761 50.7693 28.3256C55.3707 25.775 57.1289 20.2085 54.7451 15.908C53.132 12.9979 50.1862 11.883 46.7529 12.5948L47.8081 12.7962C48.5442 12.9367 49.027 13.6472 48.8865 14.3833C48.746 15.1193 48.0355 15.6021 47.2994 15.4616L43.2055 14.6803L41.6987 18.5661C41.4278 19.2648 40.6419 19.6115 39.9432 19.3406C39.2446 19.0697 38.8978 18.2837 39.1687 17.5851L39.5571 16.5836Z"
        fill="#C8C7CC"/>
  <path
    d="M19.2793 49.1162C19.1184 48.9714 18.9924 48.7918 18.9091 48.5911L18.8399 48.4252C18.2195 46.9291 18.2603 45.3001 18.868 43.8278L16.1761 41.8359C15.5351 41.3616 15.4 40.4576 15.8743 39.8166L15.8987 39.7836C16.373 39.1426 17.2771 39.0075 17.918 39.4818L20.6049 41.47C21.437 40.7859 22.4237 40.3038 23.5259 40.1391C23.9836 40.0707 24.446 40.2222 24.7745 40.5478C25.8805 41.647 27.7685 43.0736 30.4802 43.6323C34.0276 44.3622 36.9453 43.1281 38.1082 42.5175L40.7146 40.6872C41.1998 40.3467 41.8417 40.3322 42.3423 40.6497C42.7071 40.881 42.9439 41.2572 43.0056 41.67C43.0284 41.8221 43.0271 41.9822 43.0002 42.1388L42.5482 44.7221C42.2817 46.2382 41.6581 47.6936 40.743 48.9321C39.5752 50.5103 38.0214 51.6858 36.2491 52.3312C33.9616 53.1647 30.3867 53.9447 26.3508 52.928C23.7571 52.2776 21.3136 50.9577 19.2793 49.1162ZM35.2431 49.5823C36.4731 49.1334 37.5594 48.3077 38.3848 47.1922C38.8453 46.5681 39.2026 45.8677 39.4356 45.128C37.664 46.0547 34.1803 47.3853 29.8888 46.5015C26.9282 45.8926 24.7532 44.4675 23.3216 43.2007C22.6443 43.4544 22.075 43.9349 21.7111 44.5816C21.2616 45.3787 21.1852 46.3141 21.4915 47.1642C23.1204 48.5718 25.0391 49.5806 27.0626 50.0911C30.378 50.9239 33.34 50.2739 35.2431 49.5823Z"
    fill="#C8C7CC"/>
  <path
    d="M11.0483 22.301C11.0483 22.301 10.8364 22.2146 9.26072 21.6148C7.10883 20.795 0.297725 17.8799 3.1852 13.5799C6.86435 8.10132 12.6862 8.24008 15.9629 9.4979L16.0078 9.51512C19.2851 10.7732 23.4404 13.8254 22.7718 21.0985C22.2981 26.2564 15.0324 23.8238 12.8804 23.0043C11.2165 22.3705 11.0483 22.301 11.0483 22.301Z"
    stroke="#C8C7CC" stroke-width="2.71355" stroke-linecap="round"
    stroke-linejoin="round"/>
  <path fill-rule="evenodd" clip-rule="evenodd"
        d="M7.75123 19.5841L15.4577 22.5424L15.6215 23.2422L14.3005 23.5515C15.6215 23.2422 15.6222 23.2453 15.6222 23.2453L15.623 23.2483L15.6243 23.2545L15.627 23.2668L15.6322 23.2917C15.6355 23.3084 15.6386 23.3255 15.6414 23.343C15.6472 23.3779 15.6522 23.4152 15.6566 23.4554C15.6652 23.5353 15.6716 23.631 15.6743 23.7476C15.6798 23.9792 15.6713 24.3129 15.6306 24.7982C15.5494 25.7674 15.335 27.3959 14.8119 30.1162C14.4994 31.7398 13.8396 32.9374 12.8881 33.7271C11.9418 34.5124 10.8533 34.7731 9.90754 34.8046C8.97185 34.8357 8.11352 34.6467 7.51365 34.4662C7.20802 34.3742 6.95506 34.2799 6.77472 34.2069C6.68827 34.172 6.61773 34.1416 6.56523 34.1182C6.51005 34.1004 6.43628 34.0756 6.34722 34.0434C6.16255 33.9767 5.9088 33.8771 5.61678 33.7405C5.04354 33.4725 4.27027 33.0379 3.58612 32.3891C2.89557 31.7342 2.24716 30.8121 2.0582 29.5924C1.86781 28.3635 2.17383 27.0267 3.0302 25.6076M12.9339 24.4802L8.24515 22.6803C8.2196 22.7119 8.19289 22.7452 8.16502 22.7803C7.64463 23.4364 6.75424 24.6882 5.35355 27.0096C4.74066 28.0251 4.66946 28.7232 4.73976 29.177C4.8115 29.64 5.06167 30.0486 5.45336 30.4201C5.85145 30.7976 6.3441 31.0851 6.76619 31.2824C6.97185 31.3786 7.14813 31.4475 7.26907 31.4912C7.32924 31.513 7.37484 31.5281 7.4025 31.537L7.42984 31.5456L7.43129 31.546L7.53897 31.5771L7.63851 31.6254L7.64014 31.6261L7.66583 31.6378C7.69159 31.6494 7.7346 31.6681 7.79259 31.6915C7.90919 31.7387 8.08282 31.8037 8.29581 31.8678C8.73319 31.9994 9.28026 32.1104 9.81717 32.0925C10.3441 32.075 10.7954 31.9375 11.1551 31.6389C11.5096 31.3448 11.9222 30.7724 12.1472 29.6038M12.9339 24.4802C12.9317 24.5097 12.9292 24.5401 12.9266 24.5717C12.8564 25.4096 12.6603 26.9356 12.1472 29.6038"
        fill="#C8C7CC"/>
</svg>
